<svg height="512" viewBox="0 0 64 64" width="512" xmlns="http://www.w3.org/2000/svg"><g id="Peer_to_peer" data-name="Peer to peer"><path d="m24 13v2a1 1 0 0 1 -1 1h-20a1 1 0 0 1 -1-1v-2z" fill="#57a4ff"/><path d="m24 56v2a1 1 0 0 1 -1 1h-20a1 1 0 0 1 -1-1v-2z" fill="#57a4ff"/><path d="m62 13v2a1 1 0 0 1 -1 1h-20a1 1 0 0 1 -1-1v-2z" fill="#57a4ff"/><g fill="#004fac"><path d="m61 1h-20a2 2 0 0 0 -2 2v5h-14v-5a2 2 0 0 0 -2-2h-20a2 2 0 0 0 -2 2v12a2 2 0 0 0 2 2h6v1h-1a1 1 0 0 0 0 2h4v24h-9a2 2 0 0 0 -2 2v12a2 2 0 0 0 2 2h6v1h-1a1 1 0 0 0 0 2h10a1 1 0 0 0 0-2h-1v-1h6a2 2 0 0 0 2-2v-12a2 2 0 0 0 -2-2h-9v-24h4a1 1 0 0 0 0-2h-1v-1h6a2 2 0 0 0 2-2v-5h14v5a2 2 0 0 0 2 2h6v1h-1a1 1 0 0 0 0 2h10a1 1 0 0 0 0-2h-1v-1h6a2 2 0 0 0 2-2v-12a2 2 0 0 0 -2-2zm-46 60h-4v-1h4zm-12-3v-1h20v1zm20-12v9h-20v-9zm-20-43h20v9h-20zm12 15h-4v-1h4zm-12-3v-1h20v1zm38-12h20v9h-20zm12 15h-4v-1h4zm-12-3v-1h20v1z"/><path d="m51 21a1 1 0 0 0 -1 1v29h-19a1 1 0 0 0 0 2h20a1 1 0 0 0 1-1v-30a1 1 0 0 0 -1-1z"/><path d="m28 51h-1a1 1 0 0 0 0 2h1a1 1 0 0 0 0-2z"/><path d="m10 4h-5a1 1 0 0 0 0 2h5a1 1 0 0 0 0-2z"/><path d="m14 4h-1a1 1 0 0 0 0 2h1a1 1 0 0 0 0-2z"/></g></g></svg>